<svg xmlns="http://www.w3.org/2000/svg" xmlns:xlink="http://www.w3.org/1999/xlink" width="500" zoomAndPan="magnify" viewBox="0 0 375 374.999991" height="500" preserveAspectRatio="xMidYMid meet" version="1.2"><defs/><g id="1c051b9155"><g style="fill:#ffffff;fill-opacity:1;"><g transform="translate(10.577263, 218.249986)"><path style="stroke:none" d="M 26.421875 -62.65625 C 26.75 -61.605469 27.558594 -60.445312 28.847656 -59.175781 C 30.609375 -57.445312 32.730469 -55.710938 35.214844 -53.972656 C 37.902344 -52.089844 40.679688 -50.222656 43.539062 -48.371094 C 46.582031 -46.402344 49.429688 -44.414062 52.089844 -42.402344 C 55 -40.199219 57.390625 -37.957031 59.265625 -35.675781 C 61.734375 -32.671875 62.96875 -29.472656 62.96875 -26.078125 C 62.96875 -22.796875 61.96875 -19.488281 59.96875 -16.15625 C 58.242188 -13.277344 55.9375 -10.5 53.058594 -7.820312 C 50.3125 -5.261719 47.269531 -2.941406 43.925781 -0.851562 C 40.523438 1.273438 37.015625 2.960938 33.398438 4.203125 C 29.585938 5.515625 25.910156 6.171875 22.367188 6.171875 C 19.640625 6.171875 16.832031 5.828125 13.941406 5.132812 C 10.992188 4.429688 8.222656 3.367188 5.632812 1.945312 C 2.796875 0.390625 0.460938 -1.566406 -1.375 -3.917969 C -3.542969 -6.695312 -4.625 -9.890625 -4.625 -13.503906 L -4.625 -16.042969 L 15.503906 -34.933594 L 27.839844 -27.53125 L 24.148438 -22.363281 C 24.140625 -22.347656 24.132812 -22.339844 24.132812 -22.335938 C 24.148438 -22.363281 24.164062 -22.394531 24.179688 -22.433594 C 24.246094 -22.597656 24.292969 -22.785156 24.316406 -22.996094 C 24.375 -23.511719 24.292969 -23.972656 24.078125 -24.375 C 24.285156 -23.984375 24.90625 -23.484375 25.9375 -22.867188 C 27.507812 -21.933594 29.433594 -21.105469 31.714844 -20.382812 C 34.15625 -19.609375 36.714844 -19.003906 39.390625 -18.570312 L 38.449219 -12.78125 L 32.777344 -14.273438 C 33.023438 -15.199219 33.167969 -16.066406 33.214844 -16.878906 C 33.234375 -17.257812 33.183594 -17.613281 33.0625 -17.9375 L 38.550781 -19.996094 L 33.34375 -17.308594 C 32.644531 -18.664062 31.386719 -20.035156 29.570312 -21.425781 C 27.253906 -23.207031 24.652344 -24.945312 21.765625 -26.644531 C 18.65625 -28.472656 15.636719 -30.269531 12.703125 -32.03125 C 9.414062 -34.003906 6.636719 -36.0625 4.367188 -38.210938 C 1.308594 -41.113281 -0.34375 -44.28125 -0.589844 -47.71875 C -0.800781 -51.273438 0.109375 -54.808594 2.132812 -58.328125 C 3.828125 -61.273438 5.984375 -64.074219 8.605469 -66.734375 C 11.03125 -69.195312 13.480469 -71.425781 15.957031 -73.421875 C 18.390625 -75.382812 20.464844 -76.941406 22.183594 -78.101562 L 24.96875 -79.976562 L 25.425781 -80.183594 C 27.421875 -81.082031 29.855469 -81.640625 32.734375 -81.867188 C 35.269531 -82.066406 37.976562 -82.027344 40.855469 -81.753906 C 43.773438 -81.480469 46.582031 -80.945312 49.277344 -80.152344 C 52.121094 -79.316406 54.625 -78.226562 56.792969 -76.882812 C 59.632812 -75.121094 61.566406 -72.902344 62.585938 -70.222656 L 63.898438 -66.777344 L 40.925781 -42.539062 L 28.625 -51.972656 L 32.84375 -56.6875 C 32.820312 -56.660156 32.785156 -56.601562 32.734375 -56.507812 C 32.601562 -56.257812 32.507812 -55.972656 32.457031 -55.648438 C 32.328125 -54.855469 32.449219 -54.148438 32.828125 -53.535156 C 32.8125 -53.558594 32.746094 -53.617188 32.628906 -53.710938 C 32.34375 -53.9375 31.945312 -54.164062 31.4375 -54.398438 C 30.105469 -55.003906 28.558594 -55.40625 26.796875 -55.613281 C 25.226562 -55.792969 23.796875 -55.691406 22.507812 -55.304688 L 20.820312 -60.921875 Z M 15.222656 -59.183594 L 13.46875 -64.835938 L 19.136719 -66.535156 C 21.972656 -67.386719 24.972656 -67.628906 28.144531 -67.257812 C 31.125 -66.914062 33.839844 -66.183594 36.289062 -65.070312 C 39.269531 -63.714844 41.453125 -61.910156 42.832031 -59.648438 C 43.964844 -57.792969 44.363281 -55.835938 44.03125 -53.769531 C 43.742188 -52.007812 42.925781 -50.371094 41.582031 -48.867188 L 37.210938 -52.777344 L 40.777344 -57.429688 L 43.871094 -55.058594 L 40.304688 -50.40625 L 36.046875 -54.4375 L 52.851562 -72.167969 L 57.105469 -68.136719 L 51.628906 -66.046875 C 51.613281 -66.085938 51.570312 -66.144531 51.496094 -66.226562 C 51.296875 -66.445312 51.003906 -66.675781 50.617188 -66.914062 C 49.347656 -67.703125 47.796875 -68.363281 45.96875 -68.902344 C 43.992188 -69.484375 41.921875 -69.875 39.753906 -70.082031 C 37.546875 -70.289062 35.511719 -70.320312 33.648438 -70.175781 C 32.128906 -70.058594 30.992188 -69.828125 30.238281 -69.488281 L 27.832031 -74.835938 L 31.109375 -69.972656 L 28.738281 -68.375 C 27.296875 -67.40625 25.488281 -66.042969 23.316406 -64.292969 C 21.1875 -62.578125 19.070312 -60.648438 16.957031 -58.507812 C 15.042969 -56.5625 13.488281 -54.554688 12.296875 -52.480469 C 11.4375 -50.984375 11.039062 -49.675781 11.105469 -48.554688 C 11.113281 -48.457031 11.167969 -48.3125 11.273438 -48.121094 C 11.503906 -47.703125 11.890625 -47.238281 12.433594 -46.726562 C 14.082031 -45.164062 16.183594 -43.617188 18.734375 -42.085938 C 21.644531 -40.339844 24.636719 -38.5625 27.714844 -36.75 C 31.011719 -34.808594 34.011719 -32.800781 36.707031 -30.730469 C 39.910156 -28.273438 42.261719 -25.59375 43.761719 -22.6875 L 43.921875 -22.378906 L 44.042969 -22.054688 C 44.742188 -20.183594 45.035156 -18.234375 44.921875 -16.210938 C 44.828125 -14.617188 44.5625 -12.976562 44.117188 -11.289062 L 42.761719 -6.140625 L 37.507812 -6.996094 C 34.269531 -7.523438 31.160156 -8.257812 28.175781 -9.203125 C 25.027344 -10.199219 22.28125 -11.398438 19.933594 -12.796875 C 17.046875 -14.519531 14.988281 -16.523438 13.753906 -18.816406 C 12.8125 -20.558594 12.449219 -22.382812 12.664062 -24.292969 C 12.851562 -26 13.5 -27.628906 14.609375 -29.175781 L 19.378906 -25.769531 L 16.363281 -20.742188 L 13.269531 -22.597656 L 16.285156 -27.625 L 20.296875 -23.351562 L 5.25 -9.226562 L 1.238281 -13.503906 L 7.101562 -13.503906 C 7.101562 -12.578125 7.355469 -11.789062 7.871094 -11.128906 C 8.714844 -10.046875 9.847656 -9.117188 11.273438 -8.335938 C 12.941406 -7.417969 14.742188 -6.730469 16.671875 -6.269531 C 18.664062 -5.792969 20.5625 -5.554688 22.367188 -5.554688 C 24.601562 -5.554688 27.007812 -5.996094 29.582031 -6.882812 C 32.355469 -7.839844 35.066406 -9.140625 37.710938 -10.796875 C 40.417969 -12.488281 42.871094 -14.355469 45.070312 -16.402344 C 47.140625 -18.328125 48.753906 -20.257812 49.914062 -22.1875 C 50.800781 -23.667969 51.242188 -24.960938 51.242188 -26.078125 C 51.242188 -26.671875 50.898438 -27.390625 50.207031 -28.234375 C 48.917969 -29.800781 47.1875 -31.40625 45.011719 -33.050781 C 42.585938 -34.890625 39.972656 -36.714844 37.171875 -38.527344 C 34.191406 -40.453125 31.296875 -42.402344 28.488281 -44.367188 C 25.472656 -46.476562 22.855469 -48.625 20.628906 -50.8125 C 17.933594 -53.460938 16.132812 -56.25 15.222656 -59.183594 Z M 15.222656 -59.183594 "/></g></g><g style="fill:#ffffff;fill-opacity:1;"><g transform="translate(68.09491, 218.249986)"><path style="stroke:none" d="M 24.121094 -23.285156 C 27.347656 -23.285156 30.382812 -23.136719 33.230469 -22.839844 C 35.785156 -22.574219 38.222656 -22.375 40.535156 -22.242188 C 42.441406 -22.132812 44.351562 -22.269531 46.265625 -22.652344 C 47.992188 -23 49.796875 -23.746094 51.679688 -24.898438 L 55.617188 -27.304688 L 65.53125 -17.390625 L 39.554688 5.863281 L 37.316406 5.863281 C 33.4375 5.863281 29.921875 5.617188 26.769531 5.121094 L 19.019531 3.882812 C 17.179688 3.578125 15.46875 3.496094 13.886719 3.625 C 12.78125 3.71875 11.605469 4.160156 10.351562 4.953125 L 6.5625 7.355469 L -2.859375 -1.285156 L -0.191406 -5.4375 C 0.457031 -6.449219 1.023438 -7.300781 1.5 -8 C 1.652344 -8.222656 1.796875 -8.53125 1.933594 -8.925781 C 2.027344 -9.199219 2.074219 -9.761719 2.074219 -10.617188 L 2.074219 -52.054688 L 7.9375 -52.054688 L 7.9375 -46.191406 L 2.09375 -46.191406 L 1.972656 -51.929688 C 1.949219 -52.9375 1.863281 -53.671875 1.707031 -54.128906 C 1.695312 -54.15625 1.691406 -54.167969 1.691406 -54.171875 C 1.714844 -54.125 1.746094 -54.074219 1.785156 -54.015625 C 1.953125 -53.769531 2.183594 -53.554688 2.46875 -53.363281 C 2.929688 -53.054688 3.417969 -52.871094 3.933594 -52.816406 C 4.15625 -52.792969 4.320312 -52.792969 4.425781 -52.816406 C 3.980469 -52.710938 3.277344 -52.355469 2.324219 -51.746094 L -3.160156 -48.257812 L -9.78125 -61.5 L 14.683594 -82.136719 L 17.777344 -81.136719 C 20.949219 -80.113281 23.441406 -78.554688 25.257812 -76.453125 C 26.941406 -74.507812 28.140625 -72.207031 28.855469 -69.558594 L 23.191406 -68.03125 L 19.519531 -72.601562 L 29.574219 -80.691406 L 30.945312 -80.984375 C 33.941406 -81.621094 36.921875 -81.6875 39.890625 -81.183594 C 42.246094 -80.785156 44.582031 -80.316406 46.898438 -79.769531 C 48.660156 -79.359375 50.394531 -79.152344 52.105469 -79.152344 C 53.21875 -79.152344 54.386719 -79.507812 55.605469 -80.214844 L 60.371094 -82.984375 L 67.820312 -71.808594 L 44.042969 -52.378906 L 41.953125 -52.378906 C 38.648438 -52.378906 35.761719 -52.644531 33.289062 -53.179688 C 31.007812 -53.675781 28.953125 -54.234375 27.128906 -54.855469 C 25.890625 -55.277344 24.644531 -55.566406 23.394531 -55.722656 L 24.121094 -61.539062 L 29.984375 -61.539062 L 29.984375 -43.808594 L 24.121094 -43.808594 L 24.121094 -49.671875 L 56.992188 -49.671875 L 56.992188 -36.769531 L 44.929688 -25.886719 L 24.121094 -25.886719 L 24.121094 -31.75 L 29.984375 -31.75 L 29.984375 -17.421875 L 24.121094 -17.421875 Z M 18.257812 -11.558594 L 18.257812 -37.613281 L 42.675781 -37.613281 L 42.675781 -31.75 L 38.746094 -36.101562 L 47.199219 -43.730469 L 51.128906 -39.375 L 45.265625 -39.375 L 45.265625 -43.808594 L 51.128906 -43.808594 L 51.128906 -37.945312 L 18.257812 -37.945312 L 18.257812 -68.179688 L 24.847656 -67.355469 C 26.894531 -67.101562 28.914062 -66.632812 30.90625 -65.953125 C 32.308594 -65.476562 33.929688 -65.039062 35.773438 -64.640625 C 37.425781 -64.28125 39.484375 -64.101562 41.953125 -64.101562 L 41.953125 -58.238281 L 38.242188 -62.78125 L 56.28125 -77.519531 L 59.992188 -72.980469 L 55.113281 -69.730469 L 53.671875 -71.894531 L 58.550781 -75.144531 L 61.492188 -70.074219 C 58.453125 -68.308594 55.324219 -67.425781 52.105469 -67.425781 C 49.492188 -67.425781 46.863281 -67.734375 44.222656 -68.355469 C 42.144531 -68.84375 40.046875 -69.265625 37.933594 -69.621094 C 36.433594 -69.875 34.917969 -69.839844 33.378906 -69.511719 L 32.160156 -75.25 L 35.835938 -70.679688 L 19.867188 -57.832031 L 17.53125 -66.507812 C 17.285156 -67.429688 16.902344 -68.191406 16.386719 -68.785156 C 16.003906 -69.230469 15.265625 -69.625 14.175781 -69.976562 L 15.976562 -75.558594 L 19.757812 -71.078125 L 1.304688 -55.511719 L -2.472656 -59.992188 L 2.769531 -62.613281 L 4.417969 -59.316406 L -0.824219 -56.695312 L -3.972656 -61.640625 C 1.199219 -64.929688 5.515625 -65.425781 8.972656 -63.117188 C 12.007812 -61.09375 13.582031 -57.449219 13.695312 -52.179688 L 7.835938 -52.054688 L 7.835938 -57.917969 L 13.800781 -57.917969 L 13.800781 -10.617188 C 13.800781 -8.449219 13.539062 -6.605469 13.011719 -5.089844 C 12.53125 -3.703125 11.921875 -2.464844 11.179688 -1.378906 C 10.761719 -0.773438 10.261719 -0.0117188 9.671875 0.902344 L 4.742188 -2.269531 L 8.703125 -6.589844 L 11.175781 -4.320312 L 7.214844 0 L 4.078125 -4.953125 C 6.949219 -6.773438 9.894531 -7.808594 12.914062 -8.058594 C 15.457031 -8.269531 18.109375 -8.148438 20.871094 -7.695312 L 28.585938 -6.460938 C 31.136719 -6.0625 34.046875 -5.863281 37.316406 -5.863281 L 37.316406 0 L 33.40625 -4.367188 L 53.09375 -21.996094 L 57.003906 -17.625 L 52.859375 -13.480469 L 50.589844 -15.75 L 54.734375 -19.894531 L 57.792969 -14.890625 C 54.726562 -13.019531 51.652344 -11.773438 48.566406 -11.15625 C 45.671875 -10.578125 42.769531 -10.371094 39.867188 -10.535156 C 37.371094 -10.679688 34.753906 -10.890625 32.019531 -11.175781 C 29.574219 -11.429688 26.941406 -11.558594 24.121094 -11.558594 Z M 18.257812 -11.558594 "/></g></g><g style="fill:#ffffff;fill-opacity:1;"><g transform="translate(126.643338, 218.249986)"><path style="stroke:none" d="M 81.636719 -9.375 L 64.613281 4.515625 L 62.59375 5.863281 L 60.816406 5.863281 C 59.09375 5.863281 57.367188 5.292969 55.632812 4.148438 C 54.515625 3.410156 53.324219 2.390625 52.0625 1.082031 C 49.949219 -1.109375 47.589844 -4 44.988281 -7.589844 C 42.523438 -10.996094 39.867188 -14.761719 37.023438 -18.886719 C 34.222656 -22.949219 31.335938 -27.066406 28.367188 -31.230469 C 25.4375 -35.339844 22.527344 -39.207031 19.636719 -42.835938 L 24.222656 -46.488281 L 30.085938 -46.488281 L 30.085938 -22.367188 C 30.0625 -21.164062 30.113281 -20.273438 30.238281 -19.691406 C 30.253906 -19.621094 30.265625 -19.566406 30.28125 -19.527344 C 30.277344 -19.535156 30.269531 -19.554688 30.253906 -19.585938 C 30.136719 -19.835938 29.957031 -20.082031 29.710938 -20.328125 C 29.144531 -20.894531 28.46875 -21.265625 27.683594 -21.4375 C 27.164062 -21.554688 26.691406 -21.5625 26.265625 -21.464844 C 26.199219 -21.453125 26.148438 -21.4375 26.117188 -21.425781 C 26.152344 -21.4375 26.203125 -21.464844 26.273438 -21.496094 C 26.527344 -21.628906 26.839844 -21.824219 27.207031 -22.089844 L 32.035156 -25.535156 L 40.890625 -12.828125 L 16.640625 7.132812 L 13.109375 5.054688 C 9.816406 3.117188 7.121094 0.164062 5.023438 -3.804688 C 2.988281 -7.652344 1.972656 -12.363281 1.972656 -17.9375 L 1.972656 -51.644531 C 1.949219 -52.5625 1.863281 -53.246094 1.710938 -53.6875 C 1.707031 -53.707031 1.699219 -53.71875 1.695312 -53.730469 C 1.699219 -53.726562 1.699219 -53.722656 1.703125 -53.714844 C 1.730469 -53.660156 1.765625 -53.601562 1.8125 -53.535156 C 2 -53.269531 2.246094 -53.039062 2.558594 -52.839844 C 3.023438 -52.542969 3.507812 -52.367188 4.015625 -52.320312 C 4.226562 -52.300781 4.378906 -52.304688 4.46875 -52.324219 C 4.007812 -52.210938 3.289062 -51.847656 2.324219 -51.230469 L -3.359375 -47.617188 L -9.65625 -61.394531 L 14.039062 -81.421875 L 16.183594 -81.421875 C 19.308594 -81.421875 22.519531 -80.222656 25.816406 -77.824219 C 28.394531 -75.949219 31.070312 -73.515625 33.839844 -70.515625 C 36.480469 -67.65625 39.167969 -64.414062 41.898438 -60.785156 C 44.53125 -57.28125 47.1875 -53.675781 49.855469 -49.964844 C 52.511719 -46.273438 55.082031 -42.667969 57.566406 -39.148438 L 52.777344 -35.769531 L 46.914062 -35.769531 L 46.914062 -51.847656 C 46.894531 -52.769531 46.808594 -53.453125 46.652344 -53.894531 C 46.648438 -53.910156 46.644531 -53.925781 46.640625 -53.933594 C 46.640625 -53.933594 46.644531 -53.925781 46.644531 -53.921875 C 46.671875 -53.867188 46.710938 -53.808594 46.757812 -53.742188 C 46.941406 -53.476562 47.191406 -53.246094 47.5 -53.046875 C 47.964844 -52.746094 48.453125 -52.574219 48.960938 -52.527344 C 49.171875 -52.507812 49.324219 -52.507812 49.414062 -52.53125 C 48.949219 -52.417969 48.234375 -52.054688 47.265625 -51.4375 L 41.71875 -47.90625 L 35.09375 -61.542969 L 60.675781 -83.007812 L 64.386719 -80.285156 C 66.882812 -78.453125 68.917969 -76.539062 70.484375 -74.53125 C 72.210938 -72.328125 73.46875 -69.757812 74.261719 -66.828125 C 74.988281 -64.125 75.316406 -60.808594 75.234375 -56.882812 L 69.371094 -57.003906 L 75.234375 -57.019531 L 75.339844 -23.402344 L 75.335938 -23.285156 C 75.285156 -21.984375 75.367188 -20.914062 75.574219 -20.078125 L 75.5625 -20.097656 C 75.503906 -20.234375 75.414062 -20.378906 75.300781 -20.527344 C 74.886719 -21.074219 74.335938 -21.464844 73.648438 -21.695312 C 72.859375 -21.957031 72.15625 -21.980469 71.53125 -21.769531 C 71.5 -21.757812 71.480469 -21.75 71.46875 -21.746094 C 71.488281 -21.753906 71.519531 -21.769531 71.554688 -21.789062 C 71.699219 -21.871094 71.871094 -21.988281 72.074219 -22.136719 L 76.988281 -25.769531 L 85.789062 -12.761719 Z M 74.222656 -18.457031 L 77.929688 -13.914062 L 73.074219 -10.628906 L 70.703125 -14.136719 L 75.558594 -17.421875 L 79.042969 -12.707031 C 75.828125 -10.332031 72.796875 -9.617188 69.941406 -10.570312 C 68.324219 -11.109375 66.992188 -12.074219 65.945312 -13.460938 C 65.144531 -14.519531 64.566406 -15.777344 64.199219 -17.234375 C 63.722656 -19.148438 63.527344 -21.308594 63.617188 -23.71875 L 69.476562 -23.503906 L 63.613281 -23.484375 L 63.511719 -57.054688 L 63.511719 -57.121094 C 63.570312 -59.929688 63.378906 -62.148438 62.9375 -63.773438 C 62.5625 -65.171875 62 -66.351562 61.25 -67.304688 C 60.347656 -68.460938 59.082031 -69.636719 57.453125 -70.828125 L 60.921875 -75.558594 L 64.6875 -71.066406 L 46.132812 -55.5 L 42.367188 -59.992188 L 47.640625 -62.554688 L 49.390625 -58.945312 L 44.117188 -56.382812 L 40.96875 -61.332031 C 46.101562 -64.59375 50.386719 -65.125 53.828125 -62.917969 C 56.921875 -60.933594 58.527344 -57.246094 58.640625 -51.847656 L 58.640625 -17.296875 L 47.988281 -32.386719 C 45.523438 -35.878906 42.972656 -39.453125 40.339844 -43.117188 C 37.71875 -46.757812 35.113281 -50.296875 32.527344 -53.734375 C 30.035156 -57.046875 27.601562 -59.988281 25.226562 -62.558594 C 22.980469 -64.992188 20.875 -66.917969 18.921875 -68.34375 C 18.179688 -68.878906 17.523438 -69.265625 16.945312 -69.496094 C 16.613281 -69.628906 16.359375 -69.695312 16.183594 -69.695312 L 16.183594 -75.558594 L 19.96875 -71.082031 L 1.3125 -55.308594 L -2.472656 -59.785156 L 2.859375 -62.222656 L 4.507812 -58.617188 L -0.824219 -56.179688 L -3.972656 -61.125 C 1.15625 -64.390625 5.441406 -64.917969 8.886719 -62.710938 C 11.980469 -60.730469 13.582031 -57.039062 13.695312 -51.644531 L 13.695312 -17.9375 C 13.695312 -14.300781 14.261719 -11.417969 15.386719 -9.285156 C 16.449219 -7.277344 17.671875 -5.867188 19.054688 -5.054688 L 16.082031 0 L 12.355469 -4.527344 L 29.257812 -18.441406 L 32.984375 -13.914062 L 28.175781 -10.5625 L 25.804688 -13.964844 L 30.613281 -17.316406 L 34.023438 -12.546875 C 32.175781 -11.226562 30.445312 -10.386719 28.832031 -10.023438 C 27.5625 -9.738281 26.335938 -9.726562 25.15625 -9.988281 C 23.710938 -10.308594 22.464844 -10.992188 21.417969 -12.039062 C 20.125 -13.332031 19.242188 -15.054688 18.777344 -17.210938 C 18.457031 -18.691406 18.316406 -20.410156 18.359375 -22.367188 L 18.359375 -63.261719 L 28.808594 -50.140625 C 31.828125 -46.347656 34.863281 -42.316406 37.914062 -38.039062 C 40.921875 -33.820312 43.84375 -29.65625 46.679688 -25.539062 C 49.46875 -21.488281 52.070312 -17.800781 54.484375 -14.46875 C 56.761719 -11.324219 58.765625 -8.855469 60.5 -7.0625 C 61.160156 -6.375 61.691406 -5.902344 62.085938 -5.640625 C 62.117188 -5.621094 62.140625 -5.605469 62.152344 -5.597656 C 62.117188 -5.621094 62.066406 -5.640625 62.003906 -5.664062 C 61.660156 -5.796875 61.261719 -5.863281 60.816406 -5.863281 L 60.816406 0 L 57.566406 -4.878906 L 57.875 -5.085938 L 61.125 -0.207031 L 57.421875 -4.75 Z M 74.222656 -18.457031 "/></g></g><g style="fill:#ffffff;fill-opacity:1;"><g transform="translate(203.74583, 218.249986)"><path style="stroke:none" d="M 26.421875 -62.65625 C 26.75 -61.605469 27.558594 -60.445312 28.847656 -59.175781 C 30.609375 -57.445312 32.730469 -55.710938 35.214844 -53.972656 C 37.902344 -52.089844 40.679688 -50.222656 43.539062 -48.371094 C 46.582031 -46.402344 49.429688 -44.414062 52.089844 -42.402344 C 55 -40.199219 57.390625 -37.957031 59.265625 -35.675781 C 61.734375 -32.671875 62.96875 -29.472656 62.96875 -26.078125 C 62.96875 -22.796875 61.96875 -19.488281 59.96875 -16.15625 C 58.242188 -13.277344 55.9375 -10.5 53.058594 -7.820312 C 50.3125 -5.261719 47.269531 -2.941406 43.925781 -0.851562 C 40.523438 1.273438 37.015625 2.960938 33.398438 4.203125 C 29.585938 5.515625 25.910156 6.171875 22.367188 6.171875 C 19.640625 6.171875 16.832031 5.828125 13.941406 5.132812 C 10.992188 4.429688 8.222656 3.367188 5.632812 1.945312 C 2.796875 0.390625 0.460938 -1.566406 -1.375 -3.917969 C -3.542969 -6.695312 -4.625 -9.890625 -4.625 -13.503906 L -4.625 -16.042969 L 15.503906 -34.933594 L 27.839844 -27.53125 L 24.148438 -22.363281 C 24.140625 -22.347656 24.132812 -22.339844 24.132812 -22.335938 C 24.148438 -22.363281 24.164062 -22.394531 24.179688 -22.433594 C 24.246094 -22.597656 24.292969 -22.785156 24.316406 -22.996094 C 24.375 -23.511719 24.292969 -23.972656 24.078125 -24.375 C 24.285156 -23.984375 24.90625 -23.484375 25.9375 -22.867188 C 27.507812 -21.933594 29.433594 -21.105469 31.714844 -20.382812 C 34.15625 -19.609375 36.714844 -19.003906 39.390625 -18.570312 L 38.449219 -12.78125 L 32.777344 -14.273438 C 33.023438 -15.199219 33.167969 -16.066406 33.214844 -16.878906 C 33.234375 -17.257812 33.183594 -17.613281 33.0625 -17.9375 L 38.550781 -19.996094 L 33.34375 -17.308594 C 32.644531 -18.664062 31.386719 -20.035156 29.570312 -21.425781 C 27.253906 -23.207031 24.652344 -24.945312 21.765625 -26.644531 C 18.65625 -28.472656 15.636719 -30.269531 12.703125 -32.03125 C 9.414062 -34.003906 6.636719 -36.0625 4.367188 -38.210938 C 1.308594 -41.113281 -0.34375 -44.28125 -0.589844 -47.71875 C -0.800781 -51.273438 0.109375 -54.808594 2.132812 -58.328125 C 3.828125 -61.273438 5.984375 -64.074219 8.605469 -66.734375 C 11.03125 -69.195312 13.480469 -71.425781 15.957031 -73.421875 C 18.390625 -75.382812 20.464844 -76.941406 22.183594 -78.101562 L 24.96875 -79.976562 L 25.425781 -80.183594 C 27.421875 -81.082031 29.855469 -81.640625 32.734375 -81.867188 C 35.269531 -82.066406 37.976562 -82.027344 40.855469 -81.753906 C 43.773438 -81.480469 46.582031 -80.945312 49.277344 -80.152344 C 52.121094 -79.316406 54.625 -78.226562 56.792969 -76.882812 C 59.632812 -75.121094 61.566406 -72.902344 62.585938 -70.222656 L 63.898438 -66.777344 L 40.925781 -42.539062 L 28.625 -51.972656 L 32.84375 -56.6875 C 32.820312 -56.660156 32.785156 -56.601562 32.734375 -56.507812 C 32.601562 -56.257812 32.507812 -55.972656 32.457031 -55.648438 C 32.328125 -54.855469 32.449219 -54.148438 32.828125 -53.535156 C 32.8125 -53.558594 32.746094 -53.617188 32.628906 -53.710938 C 32.34375 -53.9375 31.945312 -54.164062 31.4375 -54.398438 C 30.105469 -55.003906 28.558594 -55.40625 26.796875 -55.613281 C 25.226562 -55.792969 23.796875 -55.691406 22.507812 -55.304688 L 20.820312 -60.921875 Z M 15.222656 -59.183594 L 13.46875 -64.835938 L 19.136719 -66.535156 C 21.972656 -67.386719 24.972656 -67.628906 28.144531 -67.257812 C 31.125 -66.914062 33.839844 -66.183594 36.289062 -65.070312 C 39.269531 -63.714844 41.453125 -61.910156 42.832031 -59.648438 C 43.964844 -57.792969 44.363281 -55.835938 44.03125 -53.769531 C 43.742188 -52.007812 42.925781 -50.371094 41.582031 -48.867188 L 37.210938 -52.777344 L 40.777344 -57.429688 L 43.871094 -55.058594 L 40.304688 -50.40625 L 36.046875 -54.4375 L 52.851562 -72.167969 L 57.105469 -68.136719 L 51.628906 -66.046875 C 51.613281 -66.085938 51.570312 -66.144531 51.496094 -66.226562 C 51.296875 -66.445312 51.003906 -66.675781 50.617188 -66.914062 C 49.347656 -67.703125 47.796875 -68.363281 45.96875 -68.902344 C 43.992188 -69.484375 41.921875 -69.875 39.753906 -70.082031 C 37.546875 -70.289062 35.511719 -70.320312 33.648438 -70.175781 C 32.128906 -70.058594 30.992188 -69.828125 30.238281 -69.488281 L 27.832031 -74.835938 L 31.109375 -69.972656 L 28.738281 -68.375 C 27.296875 -67.40625 25.488281 -66.042969 23.316406 -64.292969 C 21.1875 -62.578125 19.070312 -60.648438 16.957031 -58.507812 C 15.042969 -56.5625 13.488281 -54.554688 12.296875 -52.480469 C 11.4375 -50.984375 11.039062 -49.675781 11.105469 -48.554688 C 11.113281 -48.457031 11.167969 -48.3125 11.273438 -48.121094 C 11.503906 -47.703125 11.890625 -47.238281 12.433594 -46.726562 C 14.082031 -45.164062 16.183594 -43.617188 18.734375 -42.085938 C 21.644531 -40.339844 24.636719 -38.5625 27.714844 -36.75 C 31.011719 -34.808594 34.011719 -32.800781 36.707031 -30.730469 C 39.910156 -28.273438 42.261719 -25.59375 43.761719 -22.6875 L 43.921875 -22.378906 L 44.042969 -22.054688 C 44.742188 -20.183594 45.035156 -18.234375 44.921875 -16.210938 C 44.828125 -14.617188 44.5625 -12.976562 44.117188 -11.289062 L 42.761719 -6.140625 L 37.507812 -6.996094 C 34.269531 -7.523438 31.160156 -8.257812 28.175781 -9.203125 C 25.027344 -10.199219 22.28125 -11.398438 19.933594 -12.796875 C 17.046875 -14.519531 14.988281 -16.523438 13.753906 -18.816406 C 12.8125 -20.558594 12.449219 -22.382812 12.664062 -24.292969 C 12.851562 -26 13.5 -27.628906 14.609375 -29.175781 L 19.378906 -25.769531 L 16.363281 -20.742188 L 13.269531 -22.597656 L 16.285156 -27.625 L 20.296875 -23.351562 L 5.25 -9.226562 L 1.238281 -13.503906 L 7.101562 -13.503906 C 7.101562 -12.578125 7.355469 -11.789062 7.871094 -11.128906 C 8.714844 -10.046875 9.847656 -9.117188 11.273438 -8.335938 C 12.941406 -7.417969 14.742188 -6.730469 16.671875 -6.269531 C 18.664062 -5.792969 20.5625 -5.554688 22.367188 -5.554688 C 24.601562 -5.554688 27.007812 -5.996094 29.582031 -6.882812 C 32.355469 -7.839844 35.066406 -9.140625 37.710938 -10.796875 C 40.417969 -12.488281 42.871094 -14.355469 45.070312 -16.402344 C 47.140625 -18.328125 48.753906 -20.257812 49.914062 -22.1875 C 50.800781 -23.667969 51.242188 -24.960938 51.242188 -26.078125 C 51.242188 -26.671875 50.898438 -27.390625 50.207031 -28.234375 C 48.917969 -29.800781 47.1875 -31.40625 45.011719 -33.050781 C 42.585938 -34.890625 39.972656 -36.714844 37.171875 -38.527344 C 34.191406 -40.453125 31.296875 -42.402344 28.488281 -44.367188 C 25.472656 -46.476562 22.855469 -48.625 20.628906 -50.8125 C 17.933594 -53.460938 16.132812 -56.25 15.222656 -59.183594 Z M 15.222656 -59.183594 "/></g></g><g style="fill:#ffffff;fill-opacity:1;"><g transform="translate(256.315635, 218.249986)"><path style="stroke:none" d="M 80.421875 -18.84375 L 84.160156 -11.128906 L 61.867188 5.863281 L 59.890625 5.863281 C 57.769531 5.863281 55.78125 5.324219 53.925781 4.242188 C 52.296875 3.292969 50.832031 1.953125 49.53125 0.21875 C 47.5625 -2.402344 45.78125 -5.742188 44.179688 -9.808594 C 42.722656 -13.496094 41.324219 -17.429688 39.980469 -21.601562 L 45.5625 -23.398438 L 49.949219 -19.511719 L 44.179688 -13 L 27.933594 -13 L 27.933594 -18.863281 L 33.695312 -17.78125 C 33.234375 -15.320312 32.652344 -13.035156 31.949219 -10.929688 C 31.152344 -8.53125 30.109375 -6.414062 28.820312 -4.574219 L 28.765625 -4.496094 L 28.707031 -4.417969 C 25.714844 -0.425781 22.085938 3.226562 17.820312 6.535156 C 13.867188 9.609375 9.117188 13.003906 3.574219 16.722656 L -1.121094 19.875 L -10.023438 7.582031 L -5.324219 4.136719 C -1.816406 1.566406 0.800781 -1.125 2.527344 -3.945312 C 4.351562 -6.917969 5.65625 -9.90625 6.4375 -12.914062 C 7.273438 -16.140625 7.800781 -19.273438 8.015625 -22.316406 C 8.257812 -25.757812 8.519531 -29.011719 8.796875 -32.074219 C 9.121094 -35.632812 9.828125 -38.835938 10.914062 -41.675781 C 12.832031 -46.679688 15.53125 -50.75 19.011719 -53.886719 C 21.996094 -56.578125 25.1875 -59.066406 28.574219 -61.351562 L 31.851562 -56.488281 L 27.273438 -52.824219 C 27.285156 -52.808594 27.320312 -52.777344 27.375 -52.734375 C 27.046875 -52.992188 26.699219 -53.265625 26.332031 -53.558594 C 25.296875 -54.421875 24.335938 -54.851562 23.449219 -54.851562 C 21.964844 -54.851562 20.5 -54.535156 19.050781 -53.898438 C 17.214844 -53.097656 15.636719 -52.226562 14.316406 -51.292969 L 9.152344 -47.636719 L 1.71875 -60.023438 L 4.871094 -63.257812 C 7.636719 -66.09375 10.628906 -68.835938 13.855469 -71.484375 C 17.246094 -74.265625 20.730469 -76.558594 24.3125 -78.367188 C 28.335938 -80.402344 32.261719 -81.421875 36.078125 -81.421875 C 40.429688 -81.421875 44.28125 -79.664062 47.636719 -76.152344 C 50.246094 -73.421875 52.613281 -69.914062 54.730469 -65.636719 C 56.683594 -61.695312 58.503906 -57.410156 60.191406 -52.773438 C 61.824219 -48.296875 63.386719 -43.832031 64.878906 -39.386719 C 66.304688 -35.152344 67.753906 -31.34375 69.230469 -27.960938 C 70.542969 -24.957031 71.832031 -22.714844 73.101562 -21.234375 L 68.652344 -17.421875 L 72.9375 -21.421875 C 73.066406 -21.28125 73.171875 -21.1875 73.257812 -21.132812 C 73.25 -21.140625 73.222656 -21.148438 73.175781 -21.160156 C 72.816406 -21.246094 72.449219 -21.246094 72.082031 -21.15625 C 71.867188 -21.101562 71.714844 -21.042969 71.628906 -20.976562 L 77.316406 -25.246094 Z M 69.871094 -13.730469 L 75.144531 -16.285156 L 78.664062 -11.597656 C 77.476562 -10.707031 76.214844 -10.097656 74.882812 -9.769531 C 73.398438 -9.402344 71.910156 -9.402344 70.414062 -9.765625 C 68.140625 -10.316406 66.125 -11.535156 64.363281 -13.421875 L 64.28125 -13.511719 L 64.199219 -13.605469 C 62.171875 -15.972656 60.265625 -19.195312 58.484375 -23.269531 C 56.871094 -26.964844 55.296875 -31.09375 53.765625 -35.652344 C 52.304688 -40.003906 50.773438 -44.375 49.175781 -48.761719 C 47.632812 -52.988281 45.984375 -56.878906 44.226562 -60.429688 C 42.632812 -63.640625 40.945312 -66.183594 39.15625 -68.054688 C 38.113281 -69.148438 37.085938 -69.695312 36.078125 -69.695312 C 34.125 -69.695312 31.964844 -69.097656 29.601562 -67.902344 C 26.789062 -66.480469 24.019531 -64.652344 21.292969 -62.417969 C 18.402344 -60.046875 15.730469 -57.601562 13.269531 -55.078125 L 9.070312 -59.167969 L 14.097656 -62.183594 L 15.953125 -59.09375 L 10.925781 -56.074219 L 7.539062 -60.859375 C 9.511719 -62.257812 11.785156 -63.519531 14.347656 -64.640625 C 17.296875 -65.933594 20.332031 -66.578125 23.449219 -66.578125 C 27.167969 -66.578125 30.570312 -65.289062 33.660156 -62.714844 C 33.980469 -62.457031 34.285156 -62.214844 34.574219 -61.992188 C 35.25 -61.46875 35.867188 -60.855469 36.429688 -60.148438 L 40.40625 -55.183594 L 35.128906 -51.625 C 32.195312 -49.648438 29.4375 -47.5 26.859375 -45.175781 C 24.773438 -43.292969 23.109375 -40.734375 21.867188 -37.488281 C 21.164062 -35.65625 20.703125 -33.496094 20.476562 -31.011719 C 20.203125 -28.027344 19.949219 -24.855469 19.710938 -21.492188 C 19.445312 -17.730469 18.804688 -13.890625 17.785156 -9.96875 C 16.710938 -5.832031 14.957031 -1.777344 12.519531 2.191406 C 9.988281 6.316406 6.351562 10.117188 1.613281 13.59375 L -1.855469 8.863281 L 2.894531 5.425781 L 5.058594 8.414062 L 0.308594 11.855469 L -2.957031 6.984375 C 2.359375 3.417969 6.886719 0.183594 10.628906 -2.722656 C 14.0625 -5.390625 16.960938 -8.300781 19.328125 -11.453125 L 24.019531 -7.9375 L 19.214844 -11.300781 C 19.851562 -12.207031 20.386719 -13.320312 20.828125 -14.636719 C 21.359375 -16.238281 21.808594 -18.007812 22.171875 -19.945312 L 23.070312 -24.726562 L 41.542969 -24.726562 L 41.542969 -18.863281 L 37.152344 -22.753906 L 47.992188 -34.980469 L 51.140625 -25.195312 C 52.410156 -21.261719 53.722656 -17.566406 55.085938 -14.109375 C 56.304688 -11.023438 57.578125 -8.59375 58.910156 -6.816406 C 59.257812 -6.351562 59.5625 -6.042969 59.824219 -5.890625 C 59.855469 -5.871094 59.878906 -5.863281 59.890625 -5.863281 L 59.890625 0 L 56.335938 -4.664062 L 73.242188 -17.546875 L 76.792969 -12.886719 L 71.519531 -10.328125 Z M 29.6875 -36.785156 L 43.191406 -36.785156 L 43.191406 -30.925781 L 37.609375 -29.125 C 36.320312 -33.128906 35.015625 -36.988281 33.695312 -40.714844 C 32.5 -44.09375 31.15625 -46.972656 29.664062 -49.359375 L 34.636719 -52.46875 L 39.972656 -50.042969 C 38.789062 -47.441406 37.882812 -44.496094 37.246094 -41.207031 C 36.550781 -37.585938 35.96875 -33.917969 35.503906 -30.195312 L 29.6875 -30.925781 Z M 29.6875 -25.0625 L 23.046875 -25.0625 L 23.871094 -31.652344 C 24.367188 -35.628906 24.988281 -39.550781 25.734375 -43.421875 C 26.542969 -47.625 27.730469 -51.449219 29.296875 -54.894531 L 33.816406 -64.835938 L 39.605469 -55.574219 C 41.550781 -52.464844 43.265625 -48.816406 44.746094 -44.632812 C 46.105469 -40.800781 47.449219 -36.828125 48.769531 -32.722656 L 51.238281 -25.0625 Z M 29.6875 -25.0625 "/></g></g><g style="fill:#ffffff;fill-opacity:1;"><g transform="translate(329.191882, 218.249986)"><path style="stroke:none" d="M 35.457031 -20.699219 L 41.433594 -12.980469 L 16.648438 7.179688 L 13.101562 4.988281 C 9.863281 2.988281 7.203125 0.0195312 5.125 -3.910156 C 3.078125 -7.78125 2.09375 -12.523438 2.179688 -18.125 L 2.175781 -51.953125 C 2.15625 -52.859375 2.070312 -53.527344 1.917969 -53.957031 L 1.914062 -53.972656 C 1.945312 -53.917969 1.980469 -53.855469 2.03125 -53.789062 C 2.214844 -53.53125 2.460938 -53.304688 2.769531 -53.113281 C 3.214844 -52.835938 3.675781 -52.675781 4.15625 -52.628906 C 4.355469 -52.613281 4.496094 -52.613281 4.574219 -52.632812 C 4.105469 -52.519531 3.390625 -52.15625 2.425781 -51.542969 L -3.058594 -48.050781 L -9.792969 -61.523438 L 15.949219 -83 L 19.652344 -80.285156 C 22.167969 -78.4375 24.199219 -76.5 25.746094 -74.46875 C 27.453125 -72.226562 28.660156 -69.597656 29.363281 -66.585938 C 29.992188 -63.910156 30.265625 -60.671875 30.1875 -56.882812 L 24.328125 -57.003906 L 30.191406 -57.019531 L 30.292969 -22.199219 L 30.289062 -22.113281 C 30.269531 -21.265625 30.316406 -20.589844 30.429688 -20.089844 C 30.457031 -19.964844 30.484375 -19.875 30.507812 -19.816406 C 30.492188 -19.859375 30.453125 -19.917969 30.398438 -19.988281 C 29.960938 -20.550781 29.394531 -20.960938 28.691406 -21.226562 C 28.085938 -21.453125 27.496094 -21.527344 26.925781 -21.445312 C 26.796875 -21.429688 26.6875 -21.402344 26.597656 -21.375 C 26.582031 -21.371094 26.574219 -21.367188 26.570312 -21.363281 C 26.582031 -21.371094 26.597656 -21.378906 26.621094 -21.386719 C 26.824219 -21.484375 27.089844 -21.648438 27.414062 -21.882812 L 32.003906 -25.160156 Z M 26.183594 -13.523438 L 30.820312 -17.109375 L 34.230469 -12.339844 C 32.25 -10.925781 30.367188 -10.09375 28.582031 -9.839844 C 27.171875 -9.636719 25.828125 -9.773438 24.558594 -10.253906 C 23.199219 -10.765625 22.058594 -11.609375 21.140625 -12.789062 C 19.320312 -15.128906 18.464844 -18.339844 18.570312 -22.414062 L 24.429688 -22.265625 L 18.566406 -22.246094 L 18.464844 -57.054688 L 18.464844 -57.125 C 18.523438 -59.929688 18.351562 -62.191406 17.949219 -63.910156 C 17.625 -65.300781 17.113281 -66.453125 16.414062 -67.367188 C 15.554688 -68.5 14.320312 -69.652344 12.714844 -70.828125 L 16.183594 -75.558594 L 19.9375 -71.054688 L 1.28125 -55.492188 L -2.472656 -59.992188 L 2.769531 -62.613281 L 4.523438 -59.109375 L -0.722656 -56.488281 L -3.871094 -61.433594 C 1.234375 -64.683594 5.519531 -65.222656 8.984375 -63.058594 C 12.148438 -61.078125 13.789062 -57.378906 13.902344 -51.953125 L 13.902344 -17.953125 C 13.847656 -14.347656 14.378906 -11.492188 15.492188 -9.390625 C 16.574219 -7.339844 17.832031 -5.871094 19.265625 -4.988281 L 16.183594 0 L 12.484375 -4.546875 L 29.597656 -18.464844 L 33.292969 -13.914062 L 28.660156 -10.328125 Z M 26.183594 -13.523438 "/></g></g><g style="fill:#000a24;fill-opacity:1;"><g transform="translate(10.577263, 218.249986)"><path style="stroke:none" d="M 20.828125 -60.921875 C 21.441406 -58.929688 22.742188 -56.953125 24.734375 -54.984375 C 26.734375 -53.023438 29.101562 -51.082031 31.84375 -49.15625 C 34.59375 -47.238281 37.425781 -45.332031 40.34375 -43.4375 C 43.269531 -41.550781 46.003906 -39.644531 48.546875 -37.71875 C 51.085938 -35.800781 53.148438 -33.878906 54.734375 -31.953125 C 56.316406 -30.023438 57.109375 -28.066406 57.109375 -26.078125 C 57.109375 -23.878906 56.382812 -21.578125 54.9375 -19.171875 C 53.5 -16.765625 51.539062 -14.410156 49.0625 -12.109375 C 46.59375 -9.804688 43.84375 -7.707031 40.8125 -5.8125 C 37.789062 -3.925781 34.679688 -2.429688 31.484375 -1.328125 C 28.296875 -0.234375 25.257812 0.3125 22.375 0.3125 C 20.101562 0.3125 17.742188 0.0195312 15.296875 -0.5625 C 12.859375 -1.144531 10.570312 -2.019531 8.4375 -3.1875 C 6.3125 -4.363281 4.578125 -5.8125 3.234375 -7.53125 C 1.898438 -9.25 1.234375 -11.238281 1.234375 -13.5 L 16.28125 -27.625 L 19.375 -25.765625 C 18.34375 -24.328125 18.1875 -22.9375 18.90625 -21.59375 C 19.632812 -20.25 20.976562 -18.992188 22.9375 -17.828125 C 24.894531 -16.660156 27.226562 -15.644531 29.9375 -14.78125 C 32.65625 -13.925781 35.492188 -13.257812 38.453125 -12.78125 C 38.796875 -14.082031 39 -15.332031 39.0625 -16.53125 C 39.132812 -17.738281 38.960938 -18.894531 38.546875 -20 C 37.453125 -22.125 35.648438 -24.148438 33.140625 -26.078125 C 30.628906 -28.003906 27.828125 -29.875 24.734375 -31.6875 C 21.640625 -33.507812 18.632812 -35.296875 15.71875 -37.046875 C 12.800781 -38.804688 10.363281 -40.613281 8.40625 -42.46875 C 6.445312 -44.320312 5.394531 -46.210938 5.25 -48.140625 C 5.113281 -50.472656 5.765625 -52.894531 7.203125 -55.40625 C 8.648438 -57.914062 10.507812 -60.320312 12.78125 -62.625 C 15.050781 -64.925781 17.335938 -67.003906 19.640625 -68.859375 C 21.941406 -70.710938 23.878906 -72.171875 25.453125 -73.234375 C 27.035156 -74.296875 27.828125 -74.828125 27.828125 -74.828125 C 29.203125 -75.453125 30.988281 -75.847656 33.1875 -76.015625 C 35.382812 -76.191406 37.753906 -76.160156 40.296875 -75.921875 C 42.847656 -75.679688 45.289062 -75.21875 47.625 -74.53125 C 49.957031 -73.84375 51.984375 -72.960938 53.703125 -71.890625 C 55.421875 -70.828125 56.554688 -69.578125 57.109375 -68.140625 L 40.296875 -50.40625 L 37.21875 -52.78125 C 38.382812 -54.082031 38.585938 -55.347656 37.828125 -56.578125 C 37.078125 -57.816406 35.753906 -58.863281 33.859375 -59.71875 C 31.972656 -60.582031 29.84375 -61.148438 27.46875 -61.421875 C 25.101562 -61.703125 22.890625 -61.535156 20.828125 -60.921875 Z M 20.828125 -60.921875 "/></g></g><g style="fill:#000a24;fill-opacity:1;"><g transform="translate(68.09491, 218.249986)"><path style="stroke:none" d="M 24.125 -17.421875 C 27.144531 -17.421875 29.976562 -17.28125 32.625 -17 C 35.269531 -16.726562 37.796875 -16.523438 40.203125 -16.390625 C 42.609375 -16.253906 45.015625 -16.425781 47.421875 -16.90625 C 49.828125 -17.382812 52.265625 -18.378906 54.734375 -19.890625 L 57 -17.625 L 37.3125 0 C 33.738281 0 30.523438 -0.222656 27.671875 -0.671875 C 24.828125 -1.117188 22.253906 -1.53125 19.953125 -1.90625 C 17.648438 -2.28125 15.46875 -2.378906 13.40625 -2.203125 C 11.34375 -2.035156 9.28125 -1.300781 7.21875 0 L 4.734375 -2.265625 C 5.359375 -3.222656 5.894531 -4.03125 6.34375 -4.6875 C 6.789062 -5.34375 7.164062 -6.113281 7.46875 -7 C 7.78125 -7.894531 7.9375 -9.097656 7.9375 -10.609375 L 7.9375 -52.046875 L 7.828125 -52.046875 C 7.765625 -55.285156 7.0625 -57.347656 5.71875 -58.234375 C 4.375 -59.128906 2.191406 -58.613281 -0.828125 -56.6875 L -2.46875 -59.984375 L 15.984375 -75.5625 C 18.109375 -74.875 19.71875 -73.894531 20.8125 -72.625 C 21.914062 -71.351562 22.707031 -69.820312 23.1875 -68.03125 L 32.15625 -75.25 C 34.425781 -75.726562 36.675781 -75.773438 38.90625 -75.390625 C 41.144531 -75.015625 43.363281 -74.566406 45.5625 -74.046875 C 47.757812 -73.535156 49.941406 -73.28125 52.109375 -73.28125 C 54.273438 -73.28125 56.421875 -73.898438 58.546875 -75.140625 L 59.984375 -72.984375 L 41.953125 -58.234375 C 39.066406 -58.234375 36.59375 -58.457031 34.53125 -58.90625 C 32.46875 -59.351562 30.628906 -59.851562 29.015625 -60.40625 C 27.398438 -60.957031 25.769531 -61.332031 24.125 -61.53125 L 24.125 -43.8125 L 51.125 -43.8125 L 51.125 -39.375 L 42.671875 -31.75 L 24.125 -31.75 Z M 24.125 -17.421875 "/></g></g><g style="fill:#000a24;fill-opacity:1;"><g transform="translate(126.643338, 218.249986)"><path style="stroke:none" d="M 77.921875 -13.921875 L 61.125 -0.203125 L 60.8125 0 C 59.71875 0 58.207031 -0.992188 56.28125 -2.984375 C 54.351562 -4.984375 52.171875 -7.664062 49.734375 -11.03125 C 47.296875 -14.394531 44.664062 -18.117188 41.84375 -22.203125 C 39.03125 -26.296875 36.128906 -30.4375 33.140625 -34.625 C 30.148438 -38.820312 27.175781 -42.773438 24.21875 -46.484375 L 24.21875 -22.375 C 24.15625 -19.207031 24.601562 -17.140625 25.5625 -16.171875 C 26.519531 -15.210938 28.203125 -15.59375 30.609375 -17.3125 L 32.984375 -13.921875 L 16.078125 0 C 13.742188 -1.375 11.785156 -3.554688 10.203125 -6.546875 C 8.617188 -9.535156 7.828125 -13.332031 7.828125 -17.9375 L 7.828125 -51.640625 C 7.765625 -54.867188 7.0625 -56.910156 5.71875 -57.765625 C 4.375 -58.628906 2.191406 -58.097656 -0.828125 -56.171875 L -2.46875 -59.78125 L 16.1875 -75.5625 C 18.039062 -75.5625 20.097656 -74.734375 22.359375 -73.078125 C 24.628906 -71.429688 27.019531 -69.25 29.53125 -66.53125 C 32.039062 -63.820312 34.597656 -60.726562 37.203125 -57.25 C 39.816406 -53.78125 42.445312 -50.207031 45.09375 -46.53125 C 47.738281 -42.863281 50.300781 -39.273438 52.78125 -35.765625 L 52.78125 -51.84375 C 52.707031 -55.070312 52 -57.113281 50.65625 -57.96875 C 49.320312 -58.832031 47.144531 -58.304688 44.125 -56.390625 L 42.359375 -59.984375 L 60.921875 -75.5625 C 62.984375 -74.039062 64.628906 -72.488281 65.859375 -70.90625 C 67.097656 -69.332031 68.007812 -67.460938 68.59375 -65.296875 C 69.175781 -63.128906 69.4375 -60.363281 69.375 -57 L 69.46875 -23.5 C 69.40625 -21.644531 69.546875 -20.03125 69.890625 -18.65625 C 70.234375 -17.28125 70.867188 -16.4375 71.796875 -16.125 C 72.722656 -15.820312 73.976562 -16.253906 75.5625 -17.421875 Z M 77.921875 -13.921875 "/></g></g><g style="fill:#000a24;fill-opacity:1;"><g transform="translate(203.74583, 218.249986)"><path style="stroke:none" d="M 20.828125 -60.921875 C 21.441406 -58.929688 22.742188 -56.953125 24.734375 -54.984375 C 26.734375 -53.023438 29.101562 -51.082031 31.84375 -49.15625 C 34.59375 -47.238281 37.425781 -45.332031 40.34375 -43.4375 C 43.269531 -41.550781 46.003906 -39.644531 48.546875 -37.71875 C 51.085938 -35.800781 53.148438 -33.878906 54.734375 -31.953125 C 56.316406 -30.023438 57.109375 -28.066406 57.109375 -26.078125 C 57.109375 -23.878906 56.382812 -21.578125 54.9375 -19.171875 C 53.5 -16.765625 51.539062 -14.410156 49.0625 -12.109375 C 46.59375 -9.804688 43.84375 -7.707031 40.8125 -5.8125 C 37.789062 -3.925781 34.679688 -2.429688 31.484375 -1.328125 C 28.296875 -0.234375 25.257812 0.3125 22.375 0.3125 C 20.101562 0.3125 17.742188 0.0195312 15.296875 -0.5625 C 12.859375 -1.144531 10.570312 -2.019531 8.4375 -3.1875 C 6.3125 -4.363281 4.578125 -5.8125 3.234375 -7.53125 C 1.898438 -9.25 1.234375 -11.238281 1.234375 -13.5 L 16.28125 -27.625 L 19.375 -25.765625 C 18.34375 -24.328125 18.1875 -22.9375 18.90625 -21.59375 C 19.632812 -20.25 20.976562 -18.992188 22.9375 -17.828125 C 24.894531 -16.660156 27.226562 -15.644531 29.9375 -14.78125 C 32.65625 -13.925781 35.492188 -13.257812 38.453125 -12.78125 C 38.796875 -14.082031 39 -15.332031 39.0625 -16.53125 C 39.132812 -17.738281 38.960938 -18.894531 38.546875 -20 C 37.453125 -22.125 35.648438 -24.148438 33.140625 -26.078125 C 30.628906 -28.003906 27.828125 -29.875 24.734375 -31.6875 C 21.640625 -33.507812 18.632812 -35.296875 15.71875 -37.046875 C 12.800781 -38.804688 10.363281 -40.613281 8.40625 -42.46875 C 6.445312 -44.320312 5.394531 -46.210938 5.25 -48.140625 C 5.113281 -50.472656 5.765625 -52.894531 7.203125 -55.40625 C 8.648438 -57.914062 10.507812 -60.320312 12.78125 -62.625 C 15.050781 -64.925781 17.335938 -67.003906 19.640625 -68.859375 C 21.941406 -70.710938 23.878906 -72.171875 25.453125 -73.234375 C 27.035156 -74.296875 27.828125 -74.828125 27.828125 -74.828125 C 29.203125 -75.453125 30.988281 -75.847656 33.1875 -76.015625 C 35.382812 -76.191406 37.753906 -76.160156 40.296875 -75.921875 C 42.847656 -75.679688 45.289062 -75.21875 47.625 -74.53125 C 49.957031 -73.84375 51.984375 -72.960938 53.703125 -71.890625 C 55.421875 -70.828125 56.554688 -69.578125 57.109375 -68.140625 L 40.296875 -50.40625 L 37.21875 -52.78125 C 38.382812 -54.082031 38.585938 -55.347656 37.828125 -56.578125 C 37.078125 -57.816406 35.753906 -58.863281 33.859375 -59.71875 C 31.972656 -60.582031 29.84375 -61.148438 27.46875 -61.421875 C 25.101562 -61.703125 22.890625 -61.535156 20.828125 -60.921875 Z M 20.828125 -60.921875 "/></g></g><g style="fill:#000a24;fill-opacity:1;"><g transform="translate(256.315635, 218.249986)"><path style="stroke:none" d="M 75.140625 -16.28125 L 76.796875 -12.890625 L 59.890625 0 C 57.753906 0 55.863281 -1.097656 54.21875 -3.296875 C 52.570312 -5.492188 51.039062 -8.378906 49.625 -11.953125 C 48.21875 -15.523438 46.863281 -19.34375 45.5625 -23.40625 L 41.546875 -18.859375 L 27.9375 -18.859375 C 27.519531 -16.660156 27 -14.632812 26.375 -12.78125 C 25.757812 -10.925781 24.972656 -9.3125 24.015625 -7.9375 C 21.335938 -4.363281 18.070312 -1.082031 14.21875 1.90625 C 10.375 4.894531 5.738281 8.210938 0.3125 11.859375 L -1.859375 8.859375 C 2.265625 5.835938 5.390625 2.59375 7.515625 -0.875 C 9.648438 -4.34375 11.179688 -7.863281 12.109375 -11.4375 C 13.035156 -15.007812 13.617188 -18.492188 13.859375 -21.890625 C 14.097656 -25.296875 14.351562 -28.507812 14.625 -31.53125 C 14.90625 -34.5625 15.492188 -37.242188 16.390625 -39.578125 C 17.972656 -43.703125 20.15625 -47.019531 22.9375 -49.53125 C 25.71875 -52.039062 28.6875 -54.359375 31.84375 -56.484375 C 31.570312 -56.828125 31.28125 -57.117188 30.96875 -57.359375 C 30.664062 -57.597656 30.34375 -57.859375 30 -58.140625 C 27.9375 -59.859375 25.753906 -60.71875 23.453125 -60.71875 C 21.148438 -60.71875 18.898438 -60.234375 16.703125 -59.265625 C 14.503906 -58.304688 12.578125 -57.242188 10.921875 -56.078125 L 9.078125 -59.171875 C 11.679688 -61.847656 14.507812 -64.441406 17.5625 -66.953125 C 20.625 -69.460938 23.753906 -71.523438 26.953125 -73.140625 C 30.148438 -74.753906 33.191406 -75.5625 36.078125 -75.5625 C 38.753906 -75.5625 41.191406 -74.410156 43.390625 -72.109375 C 45.585938 -69.804688 47.613281 -66.78125 49.46875 -63.03125 C 51.332031 -59.289062 53.070312 -55.203125 54.6875 -50.765625 C 56.300781 -46.335938 57.84375 -41.921875 59.3125 -37.515625 C 60.789062 -33.117188 62.300781 -29.148438 63.84375 -25.609375 C 65.394531 -22.078125 67 -19.347656 68.65625 -17.421875 C 69.613281 -16.390625 70.660156 -15.734375 71.796875 -15.453125 C 72.929688 -15.179688 74.046875 -15.457031 75.140625 -16.28125 Z M 29.6875 -30.921875 L 43.1875 -30.921875 C 41.882812 -34.972656 40.5625 -38.890625 39.21875 -42.671875 C 37.882812 -46.453125 36.359375 -49.71875 34.640625 -52.46875 C 33.265625 -49.445312 32.210938 -46.0625 31.484375 -42.3125 C 30.765625 -38.570312 30.164062 -34.773438 29.6875 -30.921875 Z M 29.6875 -30.921875 "/></g></g><g style="fill:#000a24;fill-opacity:1;"><g transform="translate(329.191882, 218.249986)"><path style="stroke:none" d="M 30.828125 -17.109375 L 33.296875 -13.921875 L 16.1875 0 C 13.84375 -1.445312 11.878906 -3.660156 10.296875 -6.640625 C 8.722656 -9.628906 7.972656 -13.425781 8.046875 -18.03125 L 8.046875 -51.953125 C 7.972656 -55.179688 7.25 -57.222656 5.875 -58.078125 C 4.5 -58.941406 2.300781 -58.410156 -0.71875 -56.484375 L -2.46875 -59.984375 L 16.1875 -75.5625 C 18.25 -74.039062 19.878906 -72.488281 21.078125 -70.90625 C 22.285156 -69.332031 23.144531 -67.445312 23.65625 -65.25 C 24.164062 -63.050781 24.390625 -60.300781 24.328125 -57 L 24.421875 -22.265625 C 24.359375 -19.585938 24.804688 -17.628906 25.765625 -16.390625 C 26.734375 -15.148438 28.421875 -15.390625 30.828125 -17.109375 Z M 30.828125 -17.109375 "/></g></g></g></svg>